<mxfile host="app.diagrams.net" modified="2020-11-19T03:29:30.862Z" agent="5.0 (Windows NT 10.0; Win64; x64) AppleWebKit/537.36 (KHTML, like Gecko) Chrome/86.0.4240.198 Safari/537.36" etag="sMY207WuI1km2m6rvF3G" version="13.4.9" type="github">
  <diagram id="C5RBs43oDa-KdzZeNtuy" name="Page-1">
    <mxGraphModel dx="2048" dy="1747" grid="1" gridSize="10" guides="1" tooltips="1" connect="1" arrows="1" fold="1" page="1" pageScale="1" pageWidth="827" pageHeight="1169" math="0" shadow="0">
      <root>
        <mxCell id="WIyWlLk6GJQsqaUBKTNV-0" />
        <mxCell id="WIyWlLk6GJQsqaUBKTNV-1" parent="WIyWlLk6GJQsqaUBKTNV-0" />
        <mxCell id="zkfFHV4jXpPFQw0GAbJ--0" value="Colegio" style="swimlane;fontStyle=2;align=center;verticalAlign=top;childLayout=stackLayout;horizontal=1;startSize=26;horizontalStack=0;resizeParent=1;resizeLast=0;collapsible=1;marginBottom=0;rounded=0;shadow=0;strokeWidth=1;fillColor=#e1d5e7;strokeColor=#9673a6;fontFamily=Lucida Console;" parent="WIyWlLk6GJQsqaUBKTNV-1" vertex="1">
          <mxGeometry x="50" y="10" width="160" height="40" as="geometry">
            <mxRectangle x="230" y="140" width="160" height="26" as="alternateBounds" />
          </mxGeometry>
        </mxCell>
        <mxCell id="zkfFHV4jXpPFQw0GAbJ--4" value="" style="line;html=1;strokeWidth=1;align=left;verticalAlign=middle;spacingTop=-1;spacingLeft=3;spacingRight=3;rotatable=0;labelPosition=right;points=[];portConstraint=eastwest;fillColor=#e1d5e7;strokeColor=#9673a6;" parent="zkfFHV4jXpPFQw0GAbJ--0" vertex="1">
          <mxGeometry y="26" width="160" height="8" as="geometry" />
        </mxCell>
        <mxCell id="l2L8KGgP4wLL7OGNtBLo-67" style="edgeStyle=orthogonalEdgeStyle;rounded=1;orthogonalLoop=1;jettySize=auto;html=1;entryX=1;entryY=0.75;entryDx=0;entryDy=0;endArrow=diamond;endFill=0;strokeColor=#82b366;fontFamily=Lucida Console;fontSize=6;gradientColor=#97d077;fillColor=#d5e8d4;" edge="1" parent="WIyWlLk6GJQsqaUBKTNV-1" source="l2L8KGgP4wLL7OGNtBLo-2" target="zkfFHV4jXpPFQw0GAbJ--0">
          <mxGeometry relative="1" as="geometry" />
        </mxCell>
        <mxCell id="l2L8KGgP4wLL7OGNtBLo-109" style="edgeStyle=orthogonalEdgeStyle;rounded=1;orthogonalLoop=1;jettySize=auto;html=1;endArrow=diamond;endFill=0;strokeColor=#996185;fontFamily=Garamond;fontSize=6;exitX=0.25;exitY=1;exitDx=0;exitDy=0;gradientColor=#d5739d;fillColor=#e6d0de;" edge="1" parent="WIyWlLk6GJQsqaUBKTNV-1" source="l2L8KGgP4wLL7OGNtBLo-2">
          <mxGeometry relative="1" as="geometry">
            <mxPoint x="-70" y="200" as="targetPoint" />
            <mxPoint x="290" y="37.02857142857141" as="sourcePoint" />
            <Array as="points">
              <mxPoint x="330" y="230" />
              <mxPoint x="-70" y="230" />
            </Array>
          </mxGeometry>
        </mxCell>
        <mxCell id="l2L8KGgP4wLL7OGNtBLo-2" value="Sala_de_descanso" style="swimlane;fontStyle=2;align=center;verticalAlign=top;childLayout=stackLayout;horizontal=1;startSize=26;horizontalStack=0;resizeParent=1;resizeLast=0;collapsible=1;marginBottom=0;rounded=0;shadow=0;strokeWidth=1;fillColor=#d5e8d4;strokeColor=#82b366;fontFamily=Lucida Console;gradientColor=#97d077;" vertex="1" parent="WIyWlLk6GJQsqaUBKTNV-1">
          <mxGeometry x="290" y="20" width="160" height="40" as="geometry">
            <mxRectangle x="230" y="140" width="160" height="26" as="alternateBounds" />
          </mxGeometry>
        </mxCell>
        <mxCell id="l2L8KGgP4wLL7OGNtBLo-3" value="" style="line;html=1;strokeWidth=1;align=left;verticalAlign=middle;spacingTop=-1;spacingLeft=3;spacingRight=3;rotatable=0;labelPosition=right;points=[];portConstraint=eastwest;fillColor=#e1d5e7;strokeColor=#9673a6;" vertex="1" parent="l2L8KGgP4wLL7OGNtBLo-2">
          <mxGeometry y="26" width="160" height="8" as="geometry" />
        </mxCell>
        <mxCell id="l2L8KGgP4wLL7OGNtBLo-60" style="edgeStyle=orthogonalEdgeStyle;rounded=1;orthogonalLoop=1;jettySize=auto;html=1;entryX=0.75;entryY=1;entryDx=0;entryDy=0;endArrow=diamond;endFill=0;strokeColor=#0e8088;fontFamily=Lucida Console;fillColor=#b0e3e6;" edge="1" parent="WIyWlLk6GJQsqaUBKTNV-1" source="l2L8KGgP4wLL7OGNtBLo-20" target="zkfFHV4jXpPFQw0GAbJ--0">
          <mxGeometry relative="1" as="geometry" />
        </mxCell>
        <mxCell id="l2L8KGgP4wLL7OGNtBLo-20" value="Aula" style="swimlane;fontStyle=2;align=center;verticalAlign=top;childLayout=stackLayout;horizontal=1;startSize=26;horizontalStack=0;resizeParent=1;resizeLast=0;collapsible=1;marginBottom=0;rounded=0;shadow=0;strokeWidth=1;fillColor=#b0e3e6;fontFamily=Lucida Console;strokeColor=#0e8088;" vertex="1" parent="WIyWlLk6GJQsqaUBKTNV-1">
          <mxGeometry x="110" y="90" width="160" height="40" as="geometry">
            <mxRectangle x="230" y="140" width="160" height="26" as="alternateBounds" />
          </mxGeometry>
        </mxCell>
        <mxCell id="l2L8KGgP4wLL7OGNtBLo-21" value="" style="line;html=1;strokeWidth=1;align=left;verticalAlign=middle;spacingTop=-1;spacingLeft=3;spacingRight=3;rotatable=0;labelPosition=right;points=[];portConstraint=eastwest;" vertex="1" parent="l2L8KGgP4wLL7OGNtBLo-20">
          <mxGeometry y="26" width="160" height="8" as="geometry" />
        </mxCell>
        <mxCell id="l2L8KGgP4wLL7OGNtBLo-97" style="edgeStyle=orthogonalEdgeStyle;rounded=1;orthogonalLoop=1;jettySize=auto;html=1;entryX=0;entryY=0.25;entryDx=0;entryDy=0;endArrow=diamond;endFill=0;strokeColor=#d6b656;fontFamily=Garamond;fontSize=6;gradientColor=#ffd966;fillColor=#fff2cc;" edge="1" parent="WIyWlLk6GJQsqaUBKTNV-1" source="l2L8KGgP4wLL7OGNtBLo-18" target="zkfFHV4jXpPFQw0GAbJ--0">
          <mxGeometry relative="1" as="geometry">
            <Array as="points">
              <mxPoint x="-110" y="20" />
            </Array>
          </mxGeometry>
        </mxCell>
        <mxCell id="l2L8KGgP4wLL7OGNtBLo-18" value="Director" style="swimlane;fontStyle=2;align=center;verticalAlign=top;childLayout=stackLayout;horizontal=1;startSize=26;horizontalStack=0;resizeParent=1;resizeLast=0;collapsible=1;marginBottom=0;rounded=0;shadow=0;strokeWidth=1;fillColor=#fff2cc;strokeColor=#d6b656;fontFamily=Lucida Console;gradientColor=#ffd966;" vertex="1" parent="WIyWlLk6GJQsqaUBKTNV-1">
          <mxGeometry x="-190" y="60" width="160" height="40" as="geometry">
            <mxRectangle x="230" y="140" width="160" height="26" as="alternateBounds" />
          </mxGeometry>
        </mxCell>
        <mxCell id="l2L8KGgP4wLL7OGNtBLo-19" value="" style="line;html=1;strokeWidth=1;align=left;verticalAlign=middle;spacingTop=-1;spacingLeft=3;spacingRight=3;rotatable=0;labelPosition=right;points=[];portConstraint=eastwest;fillColor=#d0cee2;strokeColor=#56517e;" vertex="1" parent="l2L8KGgP4wLL7OGNtBLo-18">
          <mxGeometry y="26" width="160" height="8" as="geometry" />
        </mxCell>
        <mxCell id="l2L8KGgP4wLL7OGNtBLo-61" value="Contiene" style="text;html=1;strokeColor=#0e8088;fillColor=#b0e3e6;align=center;verticalAlign=middle;whiteSpace=wrap;rounded=0;fontFamily=Garamond;" vertex="1" parent="WIyWlLk6GJQsqaUBKTNV-1">
          <mxGeometry x="190" y="60" width="40" height="20" as="geometry" />
        </mxCell>
        <mxCell id="l2L8KGgP4wLL7OGNtBLo-65" value="0..*" style="text;html=1;strokeColor=none;fillColor=none;align=center;verticalAlign=middle;whiteSpace=wrap;rounded=0;fontFamily=Lucida Console;fontSize=6;fontColor=#009999;" vertex="1" parent="WIyWlLk6GJQsqaUBKTNV-1">
          <mxGeometry x="180" y="60" width="10" as="geometry" />
        </mxCell>
        <mxCell id="l2L8KGgP4wLL7OGNtBLo-66" value="*..1" style="text;html=1;strokeColor=none;fillColor=none;align=center;verticalAlign=middle;whiteSpace=wrap;rounded=0;fontFamily=Lucida Console;fontSize=6;fontColor=#009999;" vertex="1" parent="WIyWlLk6GJQsqaUBKTNV-1">
          <mxGeometry x="190" y="80" width="20" as="geometry" />
        </mxCell>
        <mxCell id="l2L8KGgP4wLL7OGNtBLo-71" value="0..*" style="text;html=1;strokeColor=none;fillColor=none;align=center;verticalAlign=middle;whiteSpace=wrap;rounded=0;fontFamily=Lucida Console;fontSize=6;" vertex="1" parent="WIyWlLk6GJQsqaUBKTNV-1">
          <mxGeometry x="220" y="30" width="10" as="geometry" />
        </mxCell>
        <mxCell id="l2L8KGgP4wLL7OGNtBLo-75" value="*..1" style="text;html=1;strokeColor=none;fillColor=none;align=center;verticalAlign=middle;whiteSpace=wrap;rounded=0;fontFamily=Lucida Console;fontSize=6;" vertex="1" parent="WIyWlLk6GJQsqaUBKTNV-1">
          <mxGeometry x="270" y="30" width="20" as="geometry" />
        </mxCell>
        <mxCell id="l2L8KGgP4wLL7OGNtBLo-76" value="Contiene" style="text;html=1;strokeColor=#82b366;fillColor=#d5e8d4;align=center;verticalAlign=middle;whiteSpace=wrap;rounded=0;fontFamily=Garamond;gradientColor=#97d077;" vertex="1" parent="WIyWlLk6GJQsqaUBKTNV-1">
          <mxGeometry x="230" y="10" width="40" height="20" as="geometry" />
        </mxCell>
        <mxCell id="l2L8KGgP4wLL7OGNtBLo-77" style="edgeStyle=orthogonalEdgeStyle;rounded=1;orthogonalLoop=1;jettySize=auto;html=1;endArrow=diamond;endFill=1;fontFamily=Garamond;fontSize=6;fillColor=#f8cecc;strokeColor=#FFCCCC;" edge="1" parent="WIyWlLk6GJQsqaUBKTNV-1" source="l2L8KGgP4wLL7OGNtBLo-8">
          <mxGeometry relative="1" as="geometry">
            <mxPoint x="80" y="50" as="targetPoint" />
          </mxGeometry>
        </mxCell>
        <mxCell id="l2L8KGgP4wLL7OGNtBLo-78" style="edgeStyle=orthogonalEdgeStyle;rounded=1;orthogonalLoop=1;jettySize=auto;html=1;endArrow=diamond;endFill=0;fontFamily=Garamond;fontSize=6;fillColor=#ffcccc;strokeColor=#F19C99;" edge="1" parent="WIyWlLk6GJQsqaUBKTNV-1" source="l2L8KGgP4wLL7OGNtBLo-8">
          <mxGeometry relative="1" as="geometry">
            <mxPoint x="210" y="130" as="targetPoint" />
          </mxGeometry>
        </mxCell>
        <mxCell id="l2L8KGgP4wLL7OGNtBLo-8" value="Estudiante" style="swimlane;fontStyle=2;align=center;verticalAlign=top;childLayout=stackLayout;horizontal=1;startSize=26;horizontalStack=0;resizeParent=1;resizeLast=0;collapsible=1;marginBottom=0;rounded=0;shadow=0;strokeWidth=1;fillColor=#f8cecc;strokeColor=#b85450;fontFamily=Lucida Console;" vertex="1" parent="WIyWlLk6GJQsqaUBKTNV-1">
          <mxGeometry y="160" width="160" height="40" as="geometry">
            <mxRectangle x="230" y="140" width="160" height="26" as="alternateBounds" />
          </mxGeometry>
        </mxCell>
        <mxCell id="l2L8KGgP4wLL7OGNtBLo-9" value="" style="line;html=1;strokeWidth=1;align=left;verticalAlign=middle;spacingTop=-1;spacingLeft=3;spacingRight=3;rotatable=0;labelPosition=right;points=[];portConstraint=eastwest;fillColor=#e1d5e7;strokeColor=#9673a6;" vertex="1" parent="l2L8KGgP4wLL7OGNtBLo-8">
          <mxGeometry y="26" width="160" height="8" as="geometry" />
        </mxCell>
        <mxCell id="l2L8KGgP4wLL7OGNtBLo-82" value="0..*" style="text;html=1;strokeColor=none;fillColor=none;align=center;verticalAlign=middle;whiteSpace=wrap;rounded=0;fontFamily=Lucida Console;fontSize=6;fontColor=#FFCCCC;" vertex="1" parent="WIyWlLk6GJQsqaUBKTNV-1">
          <mxGeometry x="90" y="60" width="10" as="geometry" />
        </mxCell>
        <mxCell id="l2L8KGgP4wLL7OGNtBLo-83" value="*..1" style="text;html=1;strokeColor=#ae4132;fillColor=#fad9d5;align=center;verticalAlign=middle;whiteSpace=wrap;rounded=0;fontFamily=Lucida Console;fontSize=6;" vertex="1" parent="WIyWlLk6GJQsqaUBKTNV-1">
          <mxGeometry x="80" y="140" width="30" height="20" as="geometry" />
        </mxCell>
        <mxCell id="l2L8KGgP4wLL7OGNtBLo-87" value="Tiene" style="text;html=1;strokeColor=#ae4132;fillColor=#fad9d5;align=center;verticalAlign=middle;whiteSpace=wrap;rounded=0;fontFamily=Garamond;" vertex="1" parent="WIyWlLk6GJQsqaUBKTNV-1">
          <mxGeometry x="35" y="90" width="40" height="20" as="geometry" />
        </mxCell>
        <mxCell id="l2L8KGgP4wLL7OGNtBLo-88" value="Asiste" style="text;html=1;strokeColor=#36393d;fillColor=#ffcccc;align=center;verticalAlign=middle;whiteSpace=wrap;rounded=0;fontFamily=Garamond;" vertex="1" parent="WIyWlLk6GJQsqaUBKTNV-1">
          <mxGeometry x="170" y="140" width="40" height="20" as="geometry" />
        </mxCell>
        <mxCell id="l2L8KGgP4wLL7OGNtBLo-89" value="*..*" style="text;html=1;strokeColor=#36393d;fillColor=#ffcccc;align=center;verticalAlign=middle;whiteSpace=wrap;rounded=0;fontFamily=Lucida Console;fontSize=6;" vertex="1" parent="WIyWlLk6GJQsqaUBKTNV-1">
          <mxGeometry x="160" y="160" width="30" height="20" as="geometry" />
        </mxCell>
        <mxCell id="l2L8KGgP4wLL7OGNtBLo-90" value="*..*" style="text;html=1;strokeColor=#36393d;fillColor=#ffcccc;align=center;verticalAlign=middle;whiteSpace=wrap;rounded=0;fontFamily=Lucida Console;fontSize=6;" vertex="1" parent="WIyWlLk6GJQsqaUBKTNV-1">
          <mxGeometry x="185" y="130" width="20" height="10" as="geometry" />
        </mxCell>
        <mxCell id="l2L8KGgP4wLL7OGNtBLo-94" style="edgeStyle=orthogonalEdgeStyle;rounded=1;orthogonalLoop=1;jettySize=auto;html=1;entryX=0;entryY=0.5;entryDx=0;entryDy=0;endArrow=diamond;endFill=1;strokeColor=#b85450;fontFamily=Garamond;fontSize=6;gradientColor=#ea6b66;fillColor=#f8cecc;" edge="1" parent="WIyWlLk6GJQsqaUBKTNV-1" source="l2L8KGgP4wLL7OGNtBLo-28" target="zkfFHV4jXpPFQw0GAbJ--0">
          <mxGeometry relative="1" as="geometry">
            <Array as="points">
              <mxPoint x="-130" y="140" />
              <mxPoint y="140" />
              <mxPoint y="30" />
            </Array>
          </mxGeometry>
        </mxCell>
        <mxCell id="l2L8KGgP4wLL7OGNtBLo-103" style="edgeStyle=orthogonalEdgeStyle;rounded=1;orthogonalLoop=1;jettySize=auto;html=1;entryX=0;entryY=0.5;entryDx=0;entryDy=0;endArrow=diamond;endFill=1;strokeColor=#b85450;fontFamily=Garamond;fontSize=6;exitX=1;exitY=0.5;exitDx=0;exitDy=0;gradientColor=#ea6b66;fillColor=#f8cecc;" edge="1" parent="WIyWlLk6GJQsqaUBKTNV-1" source="l2L8KGgP4wLL7OGNtBLo-28" target="l2L8KGgP4wLL7OGNtBLo-8">
          <mxGeometry relative="1" as="geometry">
            <mxPoint x="-40" y="180" as="sourcePoint" />
          </mxGeometry>
        </mxCell>
        <mxCell id="l2L8KGgP4wLL7OGNtBLo-28" value="Profesor" style="swimlane;fontStyle=2;align=center;verticalAlign=top;childLayout=stackLayout;horizontal=1;startSize=26;horizontalStack=0;resizeParent=1;resizeLast=0;collapsible=1;marginBottom=0;rounded=0;shadow=0;strokeWidth=1;fillColor=#e6d0de;strokeColor=#996185;fontFamily=Lucida Console;gradientColor=#d5739d;" vertex="1" parent="WIyWlLk6GJQsqaUBKTNV-1">
          <mxGeometry x="-210" y="160" width="160" height="40" as="geometry">
            <mxRectangle x="230" y="140" width="160" height="26" as="alternateBounds" />
          </mxGeometry>
        </mxCell>
        <mxCell id="l2L8KGgP4wLL7OGNtBLo-29" value="" style="line;html=1;strokeWidth=1;align=left;verticalAlign=middle;spacingTop=-1;spacingLeft=3;spacingRight=3;rotatable=0;labelPosition=right;points=[];portConstraint=eastwest;fillColor=#e1d5e7;strokeColor=#9673a6;" vertex="1" parent="l2L8KGgP4wLL7OGNtBLo-28">
          <mxGeometry y="26" width="160" height="8" as="geometry" />
        </mxCell>
        <mxCell id="l2L8KGgP4wLL7OGNtBLo-98" value="Tiene" style="text;html=1;strokeColor=#996185;fillColor=#e6d0de;align=center;verticalAlign=middle;whiteSpace=wrap;rounded=0;fontFamily=Garamond;gradientColor=#d5739d;" vertex="1" parent="WIyWlLk6GJQsqaUBKTNV-1">
          <mxGeometry x="-40" y="120" width="25" height="20" as="geometry" />
        </mxCell>
        <mxCell id="l2L8KGgP4wLL7OGNtBLo-99" value="Tiene" style="text;html=1;strokeColor=#996185;fillColor=#e6d0de;align=center;verticalAlign=middle;whiteSpace=wrap;rounded=0;fontFamily=Garamond;gradientColor=#d5739d;" vertex="1" parent="WIyWlLk6GJQsqaUBKTNV-1">
          <mxGeometry x="-40" y="160" width="30" height="20" as="geometry" />
        </mxCell>
        <mxCell id="l2L8KGgP4wLL7OGNtBLo-100" value="Tiene" style="text;html=1;strokeColor=#d6b656;fillColor=#fff2cc;align=center;verticalAlign=middle;whiteSpace=wrap;rounded=0;fontFamily=Garamond;gradientColor=#ffd966;" vertex="1" parent="WIyWlLk6GJQsqaUBKTNV-1">
          <mxGeometry x="-100" y="20" width="40" height="20" as="geometry" />
        </mxCell>
        <mxCell id="l2L8KGgP4wLL7OGNtBLo-101" value="0..*" style="text;html=1;strokeColor=none;fillColor=none;align=center;verticalAlign=middle;whiteSpace=wrap;rounded=0;fontFamily=Lucida Console;fontSize=6;fontColor=#EA6B66;" vertex="1" parent="WIyWlLk6GJQsqaUBKTNV-1">
          <mxGeometry x="10" y="40" width="10" as="geometry" />
        </mxCell>
        <mxCell id="l2L8KGgP4wLL7OGNtBLo-104" style="edgeStyle=orthogonalEdgeStyle;rounded=1;orthogonalLoop=1;jettySize=auto;html=1;endArrow=diamond;endFill=1;strokeColor=#996185;fontFamily=Garamond;fontSize=6;gradientColor=#d5739d;fillColor=#e6d0de;" edge="1" parent="WIyWlLk6GJQsqaUBKTNV-1" source="l2L8KGgP4wLL7OGNtBLo-14">
          <mxGeometry relative="1" as="geometry">
            <mxPoint x="-130" y="200" as="targetPoint" />
          </mxGeometry>
        </mxCell>
        <mxCell id="l2L8KGgP4wLL7OGNtBLo-14" value="Junta_de_Profesores" style="swimlane;fontStyle=2;align=center;verticalAlign=top;childLayout=stackLayout;horizontal=1;startSize=26;horizontalStack=0;resizeParent=1;resizeLast=0;collapsible=1;marginBottom=0;rounded=0;shadow=0;strokeWidth=1;fillColor=#76608a;strokeColor=#432D57;fontFamily=Lucida Console;fontColor=#ffffff;" vertex="1" parent="WIyWlLk6GJQsqaUBKTNV-1">
          <mxGeometry x="-210" y="260" width="160" height="40" as="geometry">
            <mxRectangle x="230" y="140" width="160" height="26" as="alternateBounds" />
          </mxGeometry>
        </mxCell>
        <mxCell id="l2L8KGgP4wLL7OGNtBLo-15" value="" style="line;html=1;strokeWidth=1;align=left;verticalAlign=middle;spacingTop=-1;spacingLeft=3;spacingRight=3;rotatable=0;labelPosition=right;points=[];portConstraint=eastwest;fillColor=#e1d5e7;strokeColor=#9673a6;" vertex="1" parent="l2L8KGgP4wLL7OGNtBLo-14">
          <mxGeometry y="26" width="160" height="8" as="geometry" />
        </mxCell>
        <mxCell id="l2L8KGgP4wLL7OGNtBLo-105" value="*..1" style="text;html=1;strokeColor=#996185;fillColor=#e6d0de;align=center;verticalAlign=middle;whiteSpace=wrap;rounded=0;fontFamily=Lucida Console;fontSize=6;gradientColor=#d5739d;" vertex="1" parent="WIyWlLk6GJQsqaUBKTNV-1">
          <mxGeometry x="-125" y="200" width="15" height="10" as="geometry" />
        </mxCell>
        <mxCell id="l2L8KGgP4wLL7OGNtBLo-106" value="1..*" style="text;html=1;strokeColor=#996185;fillColor=#e6d0de;align=center;verticalAlign=middle;whiteSpace=wrap;rounded=0;fontFamily=Lucida Console;fontSize=6;gradientColor=#d5739d;" vertex="1" parent="WIyWlLk6GJQsqaUBKTNV-1">
          <mxGeometry x="-125" y="245" width="25" height="10" as="geometry" />
        </mxCell>
        <mxCell id="l2L8KGgP4wLL7OGNtBLo-107" value="Realizan" style="text;html=1;strokeColor=#996185;fillColor=#e6d0de;align=center;verticalAlign=middle;whiteSpace=wrap;rounded=0;fontFamily=Garamond;gradientColor=#d5739d;" vertex="1" parent="WIyWlLk6GJQsqaUBKTNV-1">
          <mxGeometry x="-125" y="220" width="40" height="20" as="geometry" />
        </mxCell>
        <mxCell id="l2L8KGgP4wLL7OGNtBLo-111" value="Toma_un_break" style="text;html=1;strokeColor=#996185;fillColor=#e6d0de;align=center;verticalAlign=middle;whiteSpace=wrap;rounded=0;fontFamily=Garamond;gradientColor=#d5739d;" vertex="1" parent="WIyWlLk6GJQsqaUBKTNV-1">
          <mxGeometry x="245" y="210" width="80" height="20" as="geometry" />
        </mxCell>
        <mxCell id="l2L8KGgP4wLL7OGNtBLo-112" value="*..1" style="text;html=1;strokeColor=#996185;fillColor=#e6d0de;align=center;verticalAlign=middle;whiteSpace=wrap;rounded=0;fontFamily=Lucida Console;fontSize=6;gradientColor=#d5739d;" vertex="1" parent="WIyWlLk6GJQsqaUBKTNV-1">
          <mxGeometry x="-60" y="200" width="20" height="10" as="geometry" />
        </mxCell>
        <mxCell id="l2L8KGgP4wLL7OGNtBLo-113" value="*..*" style="text;html=1;strokeColor=#996185;fillColor=#e6d0de;align=center;verticalAlign=middle;whiteSpace=wrap;rounded=0;fontFamily=Lucida Console;fontSize=6;gradientColor=#d5739d;" vertex="1" parent="WIyWlLk6GJQsqaUBKTNV-1">
          <mxGeometry x="300" y="60" width="30" height="20" as="geometry" />
        </mxCell>
        <mxCell id="l2L8KGgP4wLL7OGNtBLo-155" style="edgeStyle=orthogonalEdgeStyle;rounded=1;orthogonalLoop=1;jettySize=auto;html=1;endArrow=diamond;endFill=0;strokeColor=#A50040;fontFamily=Garamond;fontSize=6;entryX=0.688;entryY=0;entryDx=0;entryDy=0;entryPerimeter=0;fillColor=#d80073;" edge="1" parent="WIyWlLk6GJQsqaUBKTNV-1" source="l2L8KGgP4wLL7OGNtBLo-24" target="zkfFHV4jXpPFQw0GAbJ--0">
          <mxGeometry relative="1" as="geometry">
            <mxPoint x="170" y="-60" as="targetPoint" />
            <Array as="points">
              <mxPoint x="-470" y="240" />
              <mxPoint x="-470" y="-60" />
              <mxPoint x="160" y="-60" />
            </Array>
          </mxGeometry>
        </mxCell>
        <mxCell id="l2L8KGgP4wLL7OGNtBLo-24" value="Patio" style="swimlane;fontStyle=2;align=center;verticalAlign=top;childLayout=stackLayout;horizontal=1;startSize=26;horizontalStack=0;resizeParent=1;resizeLast=0;collapsible=1;marginBottom=0;rounded=0;shadow=0;strokeWidth=1;fillColor=#d80073;strokeColor=#A50040;fontFamily=Lucida Console;fontColor=#ffffff;" vertex="1" parent="WIyWlLk6GJQsqaUBKTNV-1">
          <mxGeometry x="-440" y="220" width="160" height="40" as="geometry">
            <mxRectangle x="230" y="140" width="160" height="26" as="alternateBounds" />
          </mxGeometry>
        </mxCell>
        <mxCell id="l2L8KGgP4wLL7OGNtBLo-25" value="" style="line;html=1;strokeWidth=1;align=left;verticalAlign=middle;spacingTop=-1;spacingLeft=3;spacingRight=3;rotatable=0;labelPosition=right;points=[];portConstraint=eastwest;fillColor=#e1d5e7;strokeColor=#9673a6;" vertex="1" parent="l2L8KGgP4wLL7OGNtBLo-24">
          <mxGeometry y="26" width="160" height="8" as="geometry" />
        </mxCell>
        <mxCell id="l2L8KGgP4wLL7OGNtBLo-114" style="edgeStyle=orthogonalEdgeStyle;rounded=1;orthogonalLoop=1;jettySize=auto;html=1;entryX=0.5;entryY=1;entryDx=0;entryDy=0;endArrow=diamond;endFill=0;strokeColor=#d79b00;fontFamily=Garamond;fontSize=6;fillColor=#ffe6cc;" edge="1" parent="WIyWlLk6GJQsqaUBKTNV-1" source="l2L8KGgP4wLL7OGNtBLo-22" target="l2L8KGgP4wLL7OGNtBLo-24">
          <mxGeometry relative="1" as="geometry" />
        </mxCell>
        <mxCell id="l2L8KGgP4wLL7OGNtBLo-22" value="Columpio" style="swimlane;fontStyle=2;align=center;verticalAlign=top;childLayout=stackLayout;horizontal=1;startSize=26;horizontalStack=0;resizeParent=1;resizeLast=0;collapsible=1;marginBottom=0;rounded=0;shadow=0;strokeWidth=1;fillColor=#ffe6cc;strokeColor=#d79b00;fontFamily=Lucida Console;" vertex="1" parent="WIyWlLk6GJQsqaUBKTNV-1">
          <mxGeometry x="-440" y="330" width="160" height="40" as="geometry">
            <mxRectangle x="230" y="140" width="160" height="26" as="alternateBounds" />
          </mxGeometry>
        </mxCell>
        <mxCell id="l2L8KGgP4wLL7OGNtBLo-23" value="" style="line;html=1;strokeWidth=1;align=left;verticalAlign=middle;spacingTop=-1;spacingLeft=3;spacingRight=3;rotatable=0;labelPosition=right;points=[];portConstraint=eastwest;fillColor=#e1d5e7;strokeColor=#9673a6;" vertex="1" parent="l2L8KGgP4wLL7OGNtBLo-22">
          <mxGeometry y="26" width="160" height="8" as="geometry" />
        </mxCell>
        <mxCell id="l2L8KGgP4wLL7OGNtBLo-115" value="Tiene" style="text;html=1;strokeColor=#d79b00;fillColor=#ffe6cc;align=center;verticalAlign=middle;whiteSpace=wrap;rounded=0;fontFamily=Garamond;" vertex="1" parent="WIyWlLk6GJQsqaUBKTNV-1">
          <mxGeometry x="-355" y="290" width="40" height="20" as="geometry" />
        </mxCell>
        <mxCell id="l2L8KGgP4wLL7OGNtBLo-117" style="edgeStyle=orthogonalEdgeStyle;rounded=1;orthogonalLoop=1;jettySize=auto;html=1;endArrow=diamond;endFill=1;fontFamily=Garamond;fontSize=6;entryX=0.613;entryY=0.946;entryDx=0;entryDy=0;entryPerimeter=0;fillColor=#ffcccc;strokeColor=#F19C99;" edge="1" parent="WIyWlLk6GJQsqaUBKTNV-1" source="l2L8KGgP4wLL7OGNtBLo-10" target="l2L8KGgP4wLL7OGNtBLo-9">
          <mxGeometry relative="1" as="geometry">
            <mxPoint x="100" y="210" as="targetPoint" />
          </mxGeometry>
        </mxCell>
        <mxCell id="l2L8KGgP4wLL7OGNtBLo-119" style="edgeStyle=orthogonalEdgeStyle;rounded=1;orthogonalLoop=1;jettySize=auto;html=1;entryX=0;entryY=0.5;entryDx=0;entryDy=0;endArrow=diamond;endFill=1;strokeColor=#d6b656;fontFamily=Garamond;fontSize=6;gradientColor=#ffd966;fillColor=#fff2cc;" edge="1" parent="WIyWlLk6GJQsqaUBKTNV-1" source="l2L8KGgP4wLL7OGNtBLo-10" target="l2L8KGgP4wLL7OGNtBLo-18">
          <mxGeometry relative="1" as="geometry" />
        </mxCell>
        <mxCell id="l2L8KGgP4wLL7OGNtBLo-120" style="edgeStyle=orthogonalEdgeStyle;rounded=1;orthogonalLoop=1;jettySize=auto;html=1;entryX=0;entryY=0.5;entryDx=0;entryDy=0;endArrow=diamond;endFill=1;strokeColor=#996185;fontFamily=Garamond;fontSize=6;gradientColor=#d5739d;fillColor=#e6d0de;" edge="1" parent="WIyWlLk6GJQsqaUBKTNV-1" source="l2L8KGgP4wLL7OGNtBLo-10" target="l2L8KGgP4wLL7OGNtBLo-28">
          <mxGeometry relative="1" as="geometry">
            <Array as="points">
              <mxPoint x="-280" y="180" />
            </Array>
          </mxGeometry>
        </mxCell>
        <mxCell id="l2L8KGgP4wLL7OGNtBLo-10" value="Regla" style="swimlane;fontStyle=2;align=center;verticalAlign=top;childLayout=stackLayout;horizontal=1;startSize=26;horizontalStack=0;resizeParent=1;resizeLast=0;collapsible=1;marginBottom=0;rounded=0;shadow=0;strokeWidth=1;fillColor=#008a00;strokeColor=#005700;fontFamily=Lucida Console;fontColor=#ffffff;" vertex="1" parent="WIyWlLk6GJQsqaUBKTNV-1">
          <mxGeometry x="-420" y="60" width="160" height="40" as="geometry">
            <mxRectangle x="230" y="140" width="160" height="26" as="alternateBounds" />
          </mxGeometry>
        </mxCell>
        <mxCell id="l2L8KGgP4wLL7OGNtBLo-11" value="" style="line;html=1;strokeWidth=1;align=left;verticalAlign=middle;spacingTop=-1;spacingLeft=3;spacingRight=3;rotatable=0;labelPosition=right;points=[];portConstraint=eastwest;fillColor=#e1d5e7;strokeColor=#9673a6;" vertex="1" parent="l2L8KGgP4wLL7OGNtBLo-10">
          <mxGeometry y="26" width="160" height="8" as="geometry" />
        </mxCell>
        <mxCell id="l2L8KGgP4wLL7OGNtBLo-122" value="Crea" style="text;html=1;strokeColor=#d6b656;fillColor=#fff2cc;align=center;verticalAlign=middle;whiteSpace=wrap;rounded=0;fontFamily=Garamond;gradientColor=#ffd966;" vertex="1" parent="WIyWlLk6GJQsqaUBKTNV-1">
          <mxGeometry x="-240" y="60" width="30" height="20" as="geometry" />
        </mxCell>
        <mxCell id="l2L8KGgP4wLL7OGNtBLo-123" value="Cumple" style="text;html=1;strokeColor=#ae4132;fillColor=#fad9d5;align=center;verticalAlign=middle;whiteSpace=wrap;rounded=0;fontFamily=Garamond;" vertex="1" parent="WIyWlLk6GJQsqaUBKTNV-1">
          <mxGeometry x="-330" y="190" width="60" height="20" as="geometry" />
        </mxCell>
        <mxCell id="l2L8KGgP4wLL7OGNtBLo-124" value="Cumple" style="text;html=1;strokeColor=#996185;fillColor=#e6d0de;align=center;verticalAlign=middle;whiteSpace=wrap;rounded=0;fontFamily=Garamond;gradientColor=#d5739d;" vertex="1" parent="WIyWlLk6GJQsqaUBKTNV-1">
          <mxGeometry x="-270" y="160" width="40" height="20" as="geometry" />
        </mxCell>
        <mxCell id="l2L8KGgP4wLL7OGNtBLo-128" value="Tiene" style="text;html=1;strokeColor=#005700;fillColor=#008a00;align=center;verticalAlign=middle;whiteSpace=wrap;rounded=0;fontFamily=Garamond;fontColor=#ffffff;" vertex="1" parent="WIyWlLk6GJQsqaUBKTNV-1">
          <mxGeometry x="-310" width="40" height="20" as="geometry" />
        </mxCell>
        <mxCell id="l2L8KGgP4wLL7OGNtBLo-129" style="edgeStyle=orthogonalEdgeStyle;rounded=1;orthogonalLoop=1;jettySize=auto;html=1;entryX=0.75;entryY=0;entryDx=0;entryDy=0;endArrow=diamond;endFill=0;strokeColor=#b85450;fontFamily=Garamond;fontSize=6;gradientColor=#ea6b66;fillColor=#f8cecc;" edge="1" parent="WIyWlLk6GJQsqaUBKTNV-1" source="l2L8KGgP4wLL7OGNtBLo-26" target="zkfFHV4jXpPFQw0GAbJ--0">
          <mxGeometry relative="1" as="geometry">
            <Array as="points">
              <mxPoint x="470" y="-80" />
              <mxPoint x="170" y="-80" />
            </Array>
          </mxGeometry>
        </mxCell>
        <mxCell id="l2L8KGgP4wLL7OGNtBLo-26" value="Cafetería" style="swimlane;fontStyle=2;align=center;verticalAlign=top;childLayout=stackLayout;horizontal=1;startSize=26;horizontalStack=0;resizeParent=1;resizeLast=0;collapsible=1;marginBottom=0;rounded=0;shadow=0;strokeWidth=1;fillColor=#f8cecc;strokeColor=#b85450;fontFamily=Lucida Console;gradientColor=#ea6b66;" vertex="1" parent="WIyWlLk6GJQsqaUBKTNV-1">
          <mxGeometry x="390" y="90" width="160" height="40" as="geometry">
            <mxRectangle x="230" y="140" width="160" height="26" as="alternateBounds" />
          </mxGeometry>
        </mxCell>
        <mxCell id="l2L8KGgP4wLL7OGNtBLo-27" value="" style="line;html=1;strokeWidth=1;align=left;verticalAlign=middle;spacingTop=-1;spacingLeft=3;spacingRight=3;rotatable=0;labelPosition=right;points=[];portConstraint=eastwest;fillColor=#e1d5e7;strokeColor=#9673a6;" vertex="1" parent="l2L8KGgP4wLL7OGNtBLo-26">
          <mxGeometry y="26" width="160" height="8" as="geometry" />
        </mxCell>
        <mxCell id="l2L8KGgP4wLL7OGNtBLo-133" value="Contiene" style="text;html=1;strokeColor=#b85450;fillColor=#f8cecc;align=center;verticalAlign=middle;whiteSpace=wrap;rounded=0;fontFamily=Garamond;gradientColor=#ea6b66;" vertex="1" parent="WIyWlLk6GJQsqaUBKTNV-1">
          <mxGeometry x="400" y="-70" width="40" height="20" as="geometry" />
        </mxCell>
        <mxCell id="l2L8KGgP4wLL7OGNtBLo-134" style="edgeStyle=orthogonalEdgeStyle;rounded=1;orthogonalLoop=1;jettySize=auto;html=1;entryX=0.5;entryY=1;entryDx=0;entryDy=0;endArrow=diamond;endFill=0;fontFamily=Garamond;fontSize=6;fillColor=#ffcccc;strokeColor=#FFCCCC;" edge="1" parent="WIyWlLk6GJQsqaUBKTNV-1" source="l2L8KGgP4wLL7OGNtBLo-16" target="l2L8KGgP4wLL7OGNtBLo-8">
          <mxGeometry relative="1" as="geometry" />
        </mxCell>
        <mxCell id="l2L8KGgP4wLL7OGNtBLo-135" style="edgeStyle=orthogonalEdgeStyle;rounded=1;orthogonalLoop=1;jettySize=auto;html=1;endArrow=diamond;endFill=0;fontFamily=Garamond;fontSize=6;strokeColor=#F19C99;" edge="1" parent="WIyWlLk6GJQsqaUBKTNV-1" source="l2L8KGgP4wLL7OGNtBLo-30">
          <mxGeometry relative="1" as="geometry">
            <mxPoint x="130" y="200" as="targetPoint" />
            <Array as="points">
              <mxPoint x="180" y="340" />
              <mxPoint x="180" y="210" />
              <mxPoint x="130" y="210" />
            </Array>
          </mxGeometry>
        </mxCell>
        <mxCell id="l2L8KGgP4wLL7OGNtBLo-30" value="Libro" style="swimlane;fontStyle=2;align=center;verticalAlign=top;childLayout=stackLayout;horizontal=1;startSize=26;horizontalStack=0;resizeParent=1;resizeLast=0;collapsible=1;marginBottom=0;rounded=0;shadow=0;strokeWidth=1;fillColor=#dae8fc;strokeColor=#6c8ebf;fontFamily=Lucida Console;" vertex="1" parent="WIyWlLk6GJQsqaUBKTNV-1">
          <mxGeometry y="320" width="160" height="40" as="geometry">
            <mxRectangle x="230" y="140" width="160" height="26" as="alternateBounds" />
          </mxGeometry>
        </mxCell>
        <mxCell id="l2L8KGgP4wLL7OGNtBLo-31" value="" style="line;html=1;strokeWidth=1;align=left;verticalAlign=middle;spacingTop=-1;spacingLeft=3;spacingRight=3;rotatable=0;labelPosition=right;points=[];portConstraint=eastwest;fillColor=#e1d5e7;strokeColor=#9673a6;" vertex="1" parent="l2L8KGgP4wLL7OGNtBLo-30">
          <mxGeometry y="26" width="160" height="8" as="geometry" />
        </mxCell>
        <mxCell id="l2L8KGgP4wLL7OGNtBLo-137" style="edgeStyle=orthogonalEdgeStyle;rounded=1;orthogonalLoop=1;jettySize=auto;html=1;entryX=1;entryY=0.75;entryDx=0;entryDy=0;endArrow=diamond;endFill=0;strokeColor=#10739e;fontFamily=Garamond;fontSize=6;fillColor=#b1ddf0;" edge="1" parent="WIyWlLk6GJQsqaUBKTNV-1" source="l2L8KGgP4wLL7OGNtBLo-6" target="l2L8KGgP4wLL7OGNtBLo-20">
          <mxGeometry relative="1" as="geometry">
            <Array as="points">
              <mxPoint x="350" y="120" />
            </Array>
          </mxGeometry>
        </mxCell>
        <mxCell id="l2L8KGgP4wLL7OGNtBLo-6" value="Silla" style="swimlane;fontStyle=2;align=center;verticalAlign=top;childLayout=stackLayout;horizontal=1;startSize=26;horizontalStack=0;resizeParent=1;resizeLast=0;collapsible=1;marginBottom=0;rounded=0;shadow=0;strokeWidth=1;fillColor=#b0e3e6;strokeColor=#0e8088;fontFamily=Lucida Console;" vertex="1" parent="WIyWlLk6GJQsqaUBKTNV-1">
          <mxGeometry x="330" y="280" width="160" height="40" as="geometry">
            <mxRectangle x="230" y="140" width="160" height="26" as="alternateBounds" />
          </mxGeometry>
        </mxCell>
        <mxCell id="l2L8KGgP4wLL7OGNtBLo-7" value="" style="line;html=1;strokeWidth=1;align=left;verticalAlign=middle;spacingTop=-1;spacingLeft=3;spacingRight=3;rotatable=0;labelPosition=right;points=[];portConstraint=eastwest;fillColor=#d0cee2;strokeColor=#56517e;" vertex="1" parent="l2L8KGgP4wLL7OGNtBLo-6">
          <mxGeometry y="26" width="160" height="8" as="geometry" />
        </mxCell>
        <mxCell id="l2L8KGgP4wLL7OGNtBLo-138" style="edgeStyle=orthogonalEdgeStyle;rounded=1;orthogonalLoop=1;jettySize=auto;html=1;entryX=0.75;entryY=1;entryDx=0;entryDy=0;endArrow=diamond;endFill=0;strokeColor=#10739e;fontFamily=Garamond;fontSize=6;fillColor=#b1ddf0;" edge="1" parent="WIyWlLk6GJQsqaUBKTNV-1" source="l2L8KGgP4wLL7OGNtBLo-4" target="l2L8KGgP4wLL7OGNtBLo-20">
          <mxGeometry relative="1" as="geometry" />
        </mxCell>
        <mxCell id="l2L8KGgP4wLL7OGNtBLo-4" value="Escritorio " style="swimlane;fontStyle=2;align=center;verticalAlign=top;childLayout=stackLayout;horizontal=1;startSize=26;horizontalStack=0;resizeParent=1;resizeLast=0;collapsible=1;marginBottom=0;rounded=0;shadow=0;strokeWidth=1;fillColor=#fad7ac;strokeColor=#b46504;fontFamily=Lucida Console;" vertex="1" parent="WIyWlLk6GJQsqaUBKTNV-1">
          <mxGeometry x="330" y="340" width="160" height="40" as="geometry">
            <mxRectangle x="230" y="140" width="160" height="26" as="alternateBounds" />
          </mxGeometry>
        </mxCell>
        <mxCell id="l2L8KGgP4wLL7OGNtBLo-5" value="" style="line;html=1;strokeWidth=1;align=left;verticalAlign=middle;spacingTop=-1;spacingLeft=3;spacingRight=3;rotatable=0;labelPosition=right;points=[];portConstraint=eastwest;fillColor=#d0cee2;strokeColor=#56517e;" vertex="1" parent="l2L8KGgP4wLL7OGNtBLo-4">
          <mxGeometry y="26" width="160" height="8" as="geometry" />
        </mxCell>
        <mxCell id="l2L8KGgP4wLL7OGNtBLo-139" value="Contiene" style="text;html=1;strokeColor=#10739e;fillColor=#b1ddf0;align=center;verticalAlign=middle;whiteSpace=wrap;rounded=0;fontFamily=Garamond;" vertex="1" parent="WIyWlLk6GJQsqaUBKTNV-1">
          <mxGeometry x="240" y="340" width="40" height="20" as="geometry" />
        </mxCell>
        <mxCell id="l2L8KGgP4wLL7OGNtBLo-141" value="Contiene" style="text;html=1;strokeColor=#10739e;fillColor=#b1ddf0;align=center;verticalAlign=middle;whiteSpace=wrap;rounded=0;fontFamily=Garamond;" vertex="1" parent="WIyWlLk6GJQsqaUBKTNV-1">
          <mxGeometry x="355" y="160" width="40" height="20" as="geometry" />
        </mxCell>
        <mxCell id="l2L8KGgP4wLL7OGNtBLo-142" value="Tiene" style="text;html=1;strokeColor=#36393d;fillColor=#ffcccc;align=center;verticalAlign=middle;whiteSpace=wrap;rounded=0;fontFamily=Garamond;" vertex="1" parent="WIyWlLk6GJQsqaUBKTNV-1">
          <mxGeometry x="90" y="240" width="40" height="20" as="geometry" />
        </mxCell>
        <mxCell id="l2L8KGgP4wLL7OGNtBLo-143" value="Tiene" style="text;html=1;strokeColor=#b85450;fillColor=#f8cecc;align=center;verticalAlign=middle;whiteSpace=wrap;rounded=0;fontFamily=Garamond;" vertex="1" parent="WIyWlLk6GJQsqaUBKTNV-1">
          <mxGeometry x="172.5" y="350" width="35" height="20" as="geometry" />
        </mxCell>
        <mxCell id="l2L8KGgP4wLL7OGNtBLo-144" value="*..*" style="text;html=1;fillColor=#f8cecc;align=center;verticalAlign=middle;whiteSpace=wrap;rounded=0;fontFamily=Lucida Console;fontSize=6;strokeColor=#FFCCCC;" vertex="1" parent="WIyWlLk6GJQsqaUBKTNV-1">
          <mxGeometry x="165" y="315" width="15" height="10" as="geometry" />
        </mxCell>
        <mxCell id="l2L8KGgP4wLL7OGNtBLo-145" value="*..*" style="text;html=1;fillColor=#ffcccc;align=center;verticalAlign=middle;whiteSpace=wrap;rounded=0;fontFamily=Lucida Console;fontSize=6;strokeColor=#FFCCCC;" vertex="1" parent="WIyWlLk6GJQsqaUBKTNV-1">
          <mxGeometry x="120" y="215" width="20" height="10" as="geometry" />
        </mxCell>
        <mxCell id="l2L8KGgP4wLL7OGNtBLo-146" value="*..*" style="text;html=1;strokeColor=#36393d;fillColor=#ffcccc;align=center;verticalAlign=middle;whiteSpace=wrap;rounded=0;fontFamily=Lucida Console;fontSize=6;" vertex="1" parent="WIyWlLk6GJQsqaUBKTNV-1">
          <mxGeometry x="50" y="240" width="30" height="20" as="geometry" />
        </mxCell>
        <mxCell id="l2L8KGgP4wLL7OGNtBLo-147" value="*..*" style="text;html=1;fillColor=#ffcccc;align=center;verticalAlign=middle;whiteSpace=wrap;rounded=0;fontFamily=Lucida Console;fontSize=6;strokeColor=#FFCCCC;" vertex="1" parent="WIyWlLk6GJQsqaUBKTNV-1">
          <mxGeometry x="55" y="215" width="20" height="10" as="geometry" />
        </mxCell>
        <mxCell id="l2L8KGgP4wLL7OGNtBLo-148" value="*..*" style="text;html=1;strokeColor=#10739e;fillColor=#b1ddf0;align=center;verticalAlign=middle;whiteSpace=wrap;rounded=0;fontFamily=Lucida Console;fontSize=6;" vertex="1" parent="WIyWlLk6GJQsqaUBKTNV-1">
          <mxGeometry x="360" y="260" width="30" height="20" as="geometry" />
        </mxCell>
        <mxCell id="l2L8KGgP4wLL7OGNtBLo-149" value="*..*" style="text;html=1;strokeColor=#10739e;fillColor=#b1ddf0;align=center;verticalAlign=middle;whiteSpace=wrap;rounded=0;fontFamily=Lucida Console;fontSize=6;" vertex="1" parent="WIyWlLk6GJQsqaUBKTNV-1">
          <mxGeometry x="270" y="100" width="20" height="10" as="geometry" />
        </mxCell>
        <mxCell id="l2L8KGgP4wLL7OGNtBLo-151" value="*..*" style="text;html=1;strokeColor=#10739e;fillColor=#b1ddf0;align=center;verticalAlign=middle;whiteSpace=wrap;rounded=0;fontFamily=Lucida Console;fontSize=6;" vertex="1" parent="WIyWlLk6GJQsqaUBKTNV-1">
          <mxGeometry x="300" y="340" width="30" height="20" as="geometry" />
        </mxCell>
        <mxCell id="l2L8KGgP4wLL7OGNtBLo-152" value="*..*" style="text;html=1;strokeColor=#10739e;fillColor=#b1ddf0;align=center;verticalAlign=middle;whiteSpace=wrap;rounded=0;fontFamily=Lucida Console;fontSize=6;" vertex="1" parent="WIyWlLk6GJQsqaUBKTNV-1">
          <mxGeometry x="235" y="130" width="30" height="20" as="geometry" />
        </mxCell>
        <mxCell id="l2L8KGgP4wLL7OGNtBLo-153" value="0..*" style="text;html=1;strokeColor=#b85450;fillColor=#f8cecc;align=center;verticalAlign=middle;whiteSpace=wrap;rounded=0;fontFamily=Lucida Console;fontSize=6;gradientColor=#ea6b66;" vertex="1" parent="WIyWlLk6GJQsqaUBKTNV-1">
          <mxGeometry x="190" y="-20" width="30" height="20" as="geometry" />
        </mxCell>
        <mxCell id="l2L8KGgP4wLL7OGNtBLo-154" value="*..1" style="text;html=1;strokeColor=#b85450;fillColor=#f8cecc;align=center;verticalAlign=middle;whiteSpace=wrap;rounded=0;fontFamily=Lucida Console;fontSize=6;gradientColor=#ea6b66;" vertex="1" parent="WIyWlLk6GJQsqaUBKTNV-1">
          <mxGeometry x="440" y="70" width="30" height="20" as="geometry" />
        </mxCell>
        <mxCell id="l2L8KGgP4wLL7OGNtBLo-156" value="Contiene" style="text;html=1;strokeColor=#A50040;fillColor=#d80073;align=center;verticalAlign=middle;whiteSpace=wrap;rounded=0;fontFamily=Garamond;fontColor=#ffffff;" vertex="1" parent="WIyWlLk6GJQsqaUBKTNV-1">
          <mxGeometry x="-460" y="-20" width="40" height="20" as="geometry" />
        </mxCell>
        <mxCell id="l2L8KGgP4wLL7OGNtBLo-157" value="0..*" style="text;html=1;strokeColor=#d79b00;fillColor=#ffe6cc;align=center;verticalAlign=middle;whiteSpace=wrap;rounded=0;fontFamily=Lucida Console;fontSize=6;" vertex="1" parent="WIyWlLk6GJQsqaUBKTNV-1">
          <mxGeometry x="-350" y="260" width="30" height="20" as="geometry" />
        </mxCell>
        <mxCell id="l2L8KGgP4wLL7OGNtBLo-158" value="*..1" style="text;html=1;strokeColor=#d79b00;fillColor=#ffe6cc;align=center;verticalAlign=middle;whiteSpace=wrap;rounded=0;fontFamily=Lucida Console;fontSize=6;" vertex="1" parent="WIyWlLk6GJQsqaUBKTNV-1">
          <mxGeometry x="-355" y="310" width="30" height="20" as="geometry" />
        </mxCell>
        <mxCell id="l2L8KGgP4wLL7OGNtBLo-159" value="1" style="text;html=1;strokeColor=#A50040;fillColor=#d80073;align=center;verticalAlign=middle;whiteSpace=wrap;rounded=0;fontFamily=Lucida Console;fontSize=6;fontColor=#ffffff;" vertex="1" parent="WIyWlLk6GJQsqaUBKTNV-1">
          <mxGeometry x="130" y="-50" width="30" height="20" as="geometry" />
        </mxCell>
        <mxCell id="l2L8KGgP4wLL7OGNtBLo-161" value="1" style="text;html=1;strokeColor=#A50040;fillColor=#d80073;align=center;verticalAlign=middle;whiteSpace=wrap;rounded=0;fontFamily=Lucida Console;fontSize=6;fontColor=#ffffff;" vertex="1" parent="WIyWlLk6GJQsqaUBKTNV-1">
          <mxGeometry x="-470" y="215" width="20" height="10" as="geometry" />
        </mxCell>
        <mxCell id="l2L8KGgP4wLL7OGNtBLo-162" value="2" style="text;html=1;strokeColor=#d6b656;fillColor=#fff2cc;align=center;verticalAlign=middle;whiteSpace=wrap;rounded=0;fontFamily=Lucida Console;fontSize=6;gradientColor=#ffd966;" vertex="1" parent="WIyWlLk6GJQsqaUBKTNV-1">
          <mxGeometry x="-30" y="20" width="20" height="20" as="geometry" />
        </mxCell>
        <mxCell id="l2L8KGgP4wLL7OGNtBLo-166" value="2..1" style="text;html=1;strokeColor=#d6b656;fillColor=#fff2cc;align=center;verticalAlign=middle;whiteSpace=wrap;rounded=0;fontFamily=Lucida Console;fontSize=6;gradientColor=#ffd966;" vertex="1" parent="WIyWlLk6GJQsqaUBKTNV-1">
          <mxGeometry x="-100" y="40" width="30" height="20" as="geometry" />
        </mxCell>
        <mxCell id="l2L8KGgP4wLL7OGNtBLo-167" value="1,,*" style="text;html=1;strokeColor=#005700;fillColor=#008a00;align=center;verticalAlign=middle;whiteSpace=wrap;rounded=0;fontFamily=Lucida Console;fontSize=6;fontColor=#ffffff;" vertex="1" parent="WIyWlLk6GJQsqaUBKTNV-1">
          <mxGeometry x="30" y="-4" width="40" height="14" as="geometry" />
        </mxCell>
        <mxCell id="l2L8KGgP4wLL7OGNtBLo-168" style="edgeStyle=orthogonalEdgeStyle;rounded=1;orthogonalLoop=1;jettySize=auto;html=1;entryX=0.431;entryY=0.005;entryDx=0;entryDy=0;endArrow=diamond;endFill=1;fontFamily=Garamond;fontSize=6;fillColor=#ffff88;entryPerimeter=0;strokeColor=#00CC66;" edge="1" parent="WIyWlLk6GJQsqaUBKTNV-1" source="l2L8KGgP4wLL7OGNtBLo-10" target="zkfFHV4jXpPFQw0GAbJ--0">
          <mxGeometry relative="1" as="geometry">
            <mxPoint x="-340" y="60" as="sourcePoint" />
            <mxPoint x="130" y="10" as="targetPoint" />
            <Array as="points">
              <mxPoint x="-340" y="-10" />
              <mxPoint x="119" y="-10" />
            </Array>
          </mxGeometry>
        </mxCell>
        <mxCell id="l2L8KGgP4wLL7OGNtBLo-169" value="*..1" style="text;html=1;strokeColor=#005700;fillColor=#008a00;align=center;verticalAlign=middle;whiteSpace=wrap;rounded=0;fontFamily=Lucida Console;fontSize=6;fontColor=#ffffff;" vertex="1" parent="WIyWlLk6GJQsqaUBKTNV-1">
          <mxGeometry x="-330" y="40" width="40" height="10" as="geometry" />
        </mxCell>
        <mxCell id="l2L8KGgP4wLL7OGNtBLo-170" value="*..*" style="text;html=1;strokeColor=#ae4132;fillColor=#fad9d5;align=center;verticalAlign=middle;whiteSpace=wrap;rounded=0;fontFamily=Lucida Console;fontSize=6;" vertex="1" parent="WIyWlLk6GJQsqaUBKTNV-1">
          <mxGeometry x="-340" y="110" width="30" height="20" as="geometry" />
        </mxCell>
        <mxCell id="l2L8KGgP4wLL7OGNtBLo-171" value="*..*" style="text;html=1;strokeColor=#ae4132;fillColor=#fad9d5;align=center;verticalAlign=middle;whiteSpace=wrap;rounded=0;fontFamily=Lucida Console;fontSize=6;" vertex="1" parent="WIyWlLk6GJQsqaUBKTNV-1">
          <mxGeometry x="-265" y="200" width="30" height="10" as="geometry" />
        </mxCell>
        <mxCell id="l2L8KGgP4wLL7OGNtBLo-172" style="edgeStyle=orthogonalEdgeStyle;rounded=1;orthogonalLoop=1;jettySize=auto;html=1;entryX=1;entryY=0.5;entryDx=0;entryDy=0;endArrow=diamond;endFill=1;strokeColor=#6c8ebf;fontFamily=Garamond;fontSize=6;gradientColor=#7ea6e0;fillColor=#dae8fc;" edge="1" parent="WIyWlLk6GJQsqaUBKTNV-1" source="l2L8KGgP4wLL7OGNtBLo-12" target="l2L8KGgP4wLL7OGNtBLo-2">
          <mxGeometry relative="1" as="geometry" />
        </mxCell>
        <mxCell id="l2L8KGgP4wLL7OGNtBLo-12" value="Puerta" style="swimlane;fontStyle=2;align=center;verticalAlign=top;childLayout=stackLayout;horizontal=1;startSize=26;horizontalStack=0;resizeParent=1;resizeLast=0;collapsible=1;marginBottom=0;rounded=0;shadow=0;strokeWidth=1;fillColor=#dae8fc;strokeColor=#6c8ebf;fontFamily=Lucida Console;gradientColor=#7ea6e0;" vertex="1" parent="WIyWlLk6GJQsqaUBKTNV-1">
          <mxGeometry x="560" y="20" width="160" height="40" as="geometry">
            <mxRectangle x="230" y="140" width="160" height="26" as="alternateBounds" />
          </mxGeometry>
        </mxCell>
        <mxCell id="l2L8KGgP4wLL7OGNtBLo-13" value="" style="line;html=1;strokeWidth=1;align=left;verticalAlign=middle;spacingTop=-1;spacingLeft=3;spacingRight=3;rotatable=0;labelPosition=right;points=[];portConstraint=eastwest;fillColor=#e1d5e7;strokeColor=#9673a6;" vertex="1" parent="l2L8KGgP4wLL7OGNtBLo-12">
          <mxGeometry y="26" width="160" height="8" as="geometry" />
        </mxCell>
        <mxCell id="l2L8KGgP4wLL7OGNtBLo-173" value="Tiene" style="text;html=1;strokeColor=#6c8ebf;fillColor=#dae8fc;align=center;verticalAlign=middle;whiteSpace=wrap;rounded=0;fontFamily=Garamond;gradientColor=#7ea6e0;" vertex="1" parent="WIyWlLk6GJQsqaUBKTNV-1">
          <mxGeometry x="490" y="20" width="40" height="20" as="geometry" />
        </mxCell>
        <mxCell id="l2L8KGgP4wLL7OGNtBLo-174" value="*..1" style="text;html=1;strokeColor=#996185;fillColor=#e6d0de;align=center;verticalAlign=middle;whiteSpace=wrap;rounded=0;fontFamily=Lucida Console;fontSize=6;gradientColor=#d5739d;" vertex="1" parent="WIyWlLk6GJQsqaUBKTNV-1">
          <mxGeometry x="-122.5" y="140" width="25" height="20" as="geometry" />
        </mxCell>
        <mxCell id="l2L8KGgP4wLL7OGNtBLo-175" value="*..*" style="text;html=1;strokeColor=#6c8ebf;fillColor=#dae8fc;align=center;verticalAlign=middle;whiteSpace=wrap;rounded=0;fontFamily=Lucida Console;fontSize=6;gradientColor=#7ea6e0;" vertex="1" parent="WIyWlLk6GJQsqaUBKTNV-1">
          <mxGeometry x="520" y="40" width="30" height="20" as="geometry" />
        </mxCell>
        <mxCell id="l2L8KGgP4wLL7OGNtBLo-16" value="Computadora" style="swimlane;fontStyle=2;align=center;verticalAlign=top;childLayout=stackLayout;horizontal=1;startSize=26;horizontalStack=0;resizeParent=1;resizeLast=0;collapsible=1;marginBottom=0;rounded=0;shadow=0;strokeWidth=1;fillColor=#d5e8d4;strokeColor=#82b366;fontFamily=Lucida Console;" vertex="1" parent="WIyWlLk6GJQsqaUBKTNV-1">
          <mxGeometry y="270" width="160" height="40" as="geometry">
            <mxRectangle x="230" y="140" width="160" height="26" as="alternateBounds" />
          </mxGeometry>
        </mxCell>
        <mxCell id="l2L8KGgP4wLL7OGNtBLo-17" value="" style="line;html=1;strokeWidth=1;align=left;verticalAlign=middle;spacingTop=-1;spacingLeft=3;spacingRight=3;rotatable=0;labelPosition=right;points=[];portConstraint=eastwest;fillColor=#e1d5e7;strokeColor=#9673a6;" vertex="1" parent="l2L8KGgP4wLL7OGNtBLo-16">
          <mxGeometry y="26" width="160" height="8" as="geometry" />
        </mxCell>
      </root>
    </mxGraphModel>
  </diagram>
</mxfile>
